<svg width="488" height="122" viewBox="0 0 488 122" fill="none" xmlns="http://www.w3.org/2000/svg">
<g clip-path="url(#clip0_475_48)">
<path fill-rule="evenodd" clip-rule="evenodd" d="M80.1837 48.1562L92.7821 70.7283C88.0142 68.211 82.3231 69.1976 72.0472 73.4843L56.2336 79.9803L40.4199 86.4764C40.0648 86.6467 39.7029 86.8092 39.3344 86.9638C39.3399 86.9564 39.3454 86.9488 39.3512 86.9415C39.1669 87.0239 38.9816 87.1045 38.7953 87.1829C35.5701 88.4507 31.8963 89.1475 28.1892 89.3625C28.1105 89.3633 28.0315 89.3635 27.9528 89.3635C12.5149 89.3635 0 76.8486 0 61.4108C0 59.6155 0.169212 57.8601 0.492554 56.1591C1.81374 50.9388 4.41181 43.4 7.34898 36.8701L15.4855 21.5157L30.0522 29.9147C30.0522 29.9147 26.7063 36.1509 22.4633 44.1764C21.1974 46.348 20.4722 48.8735 20.4722 51.5682C20.4722 59.6858 27.0528 66.2664 35.1703 66.2664C38.6507 66.2664 41.8486 65.0567 44.3661 63.0349C50.136 59.0289 58.1365 53.668 58.1365 53.668L58.1672 53.6509C68.0079 48.1777 74.2769 44.6911 80.1837 48.1562Z" fill="white"/>
<path d="M29.5276 22.4344C34.2387 22.4344 38.0577 18.6153 38.0577 13.9042C38.0577 9.19312 34.2387 5.37402 29.5276 5.37402C24.8165 5.37402 20.9974 9.19312 20.9974 13.9042C20.9974 18.6153 24.8165 22.4344 29.5276 22.4344Z" fill="white"/>
<path d="M37.0735 60.0984C42.1832 60.0984 46.3255 55.9562 46.3255 50.8465C46.3255 45.7367 42.1832 41.5945 37.0735 41.5945C31.9638 41.5945 27.8215 45.7367 27.8215 50.8465C27.8215 55.9562 31.9638 60.0984 37.0735 60.0984Z" fill="white"/>
<path d="M53.9641 12.1993C57.3937 12.2298 60.9591 14.0912 63.2546 17.7099L77.2966 42.9068C74.4627 41.1252 71.0139 41.2945 67.3525 42.5131C63.4872 44.0519 62.8622 44.4714 57.6412 47.2375L53.9641 40.4144L45.8005 54.5866C42.7822 59.1078 42.126 59.1779 34.1207 56.1614C34.979 52.7519 30.4803 50.9152 28.8714 46.5813L43.9903 17.7111C46.615 12.7242 50.5344 12.1687 53.9641 12.1993Z" fill="white"/>
<path fill-rule="evenodd" clip-rule="evenodd" d="M87.8181 97.407C88.2829 97.4685 88.7572 97.5 89.2388 97.5C95.1821 97.5 100 92.6821 100 86.7388C100 84.8931 99.5354 83.1561 98.7168 81.6383C98.7202 81.6391 98.7236 81.6401 98.7268 81.6409L96.063 76.8089C90.8063 74.0963 84.8126 75.6314 74.5407 79.8272L79.3963 90.9383C81.1963 94.0475 84.3866 96.2682 87.8181 97.407Z" fill="white"/>
</g>
<path d="M130.682 98.5653C125.095 98.5653 120.289 97.3816 116.264 95.0142C112.263 92.6231 109.186 89.3087 107.031 85.071C104.901 80.8333 103.835 75.9564 103.835 70.4403C103.835 64.8532 104.912 59.9527 107.067 55.7386C109.245 51.5009 112.334 48.1984 116.335 45.831C120.336 43.4399 125.095 42.2443 130.611 42.2443C135.369 42.2443 139.536 43.1084 143.111 44.8366C146.686 46.5649 149.515 48.9915 151.598 52.1165C153.681 55.2415 154.83 58.911 155.043 63.125H140.767C140.365 60.4025 139.299 58.2126 137.571 56.5554C135.866 54.8745 133.629 54.0341 130.859 54.0341C128.516 54.0341 126.468 54.6733 124.716 55.9517C122.988 57.2064 121.638 59.0412 120.668 61.456C119.697 63.8707 119.212 66.7945 119.212 70.2273C119.212 73.7074 119.685 76.6667 120.632 79.1051C121.603 81.5436 122.964 83.402 124.716 84.6804C126.468 85.9588 128.516 86.598 130.859 86.598C132.588 86.598 134.138 86.2429 135.511 85.5327C136.908 84.8224 138.056 83.7926 138.956 82.4432C139.879 81.0701 140.483 79.4247 140.767 77.5071H155.043C154.806 81.6738 153.67 85.3433 151.634 88.5156C149.621 91.6643 146.839 94.1264 143.288 95.902C139.737 97.6776 135.535 98.5653 130.682 98.5653ZM180.282 98.5298C176.802 98.5298 173.701 97.9261 170.978 96.7188C168.256 95.4877 166.101 93.6766 164.515 91.2855C162.953 88.8707 162.172 85.8641 162.172 82.2656C162.172 79.2353 162.728 76.6903 163.841 74.6307C164.953 72.571 166.468 70.9138 168.386 69.6591C170.304 68.4044 172.482 67.4574 174.92 66.8182C177.382 66.179 179.963 65.7292 182.662 65.4688C185.834 65.1373 188.391 64.8295 190.332 64.5455C192.273 64.2377 193.682 63.7879 194.558 63.196C195.434 62.6042 195.872 61.7282 195.872 60.5682V60.3551C195.872 58.1061 195.162 56.366 193.741 55.1349C192.344 53.9039 190.356 53.2884 187.775 53.2884C185.053 53.2884 182.886 53.892 181.277 55.0994C179.667 56.2831 178.601 57.7746 178.081 59.5739L164.089 58.4375C164.799 55.1231 166.196 52.2585 168.279 49.8438C170.363 47.4053 173.05 45.535 176.341 44.233C179.655 42.9072 183.49 42.2443 187.846 42.2443C190.877 42.2443 193.777 42.5994 196.547 43.3097C199.34 44.0199 201.814 45.1207 203.968 46.6122C206.146 48.1037 207.863 50.0213 209.118 52.3651C210.372 54.6851 211 57.4669 211 60.7102V97.5H196.653V89.9361H196.227C195.351 91.6406 194.179 93.1439 192.711 94.446C191.243 95.7244 189.48 96.7306 187.42 97.4645C185.36 98.1747 182.981 98.5298 180.282 98.5298ZM184.615 88.0895C186.84 88.0895 188.805 87.6515 190.51 86.7756C192.214 85.8759 193.552 84.6686 194.522 83.1534C195.493 81.6383 195.978 79.9219 195.978 78.0043V72.2159C195.505 72.5237 194.854 72.8078 194.025 73.0682C193.22 73.3049 192.309 73.5298 191.291 73.7429C190.273 73.9323 189.255 74.1098 188.237 74.2756C187.219 74.4176 186.296 74.5478 185.467 74.6662C183.691 74.9266 182.141 75.3409 180.815 75.9091C179.489 76.4773 178.459 77.2467 177.725 78.2173C176.992 79.1643 176.625 80.348 176.625 81.7685C176.625 83.8281 177.37 85.4025 178.862 86.4915C180.377 87.5568 182.295 88.0895 184.615 88.0895ZM242.836 98.3878C238.693 98.3878 234.94 97.3224 231.578 95.1918C228.24 93.0374 225.589 89.8769 223.624 85.7102C221.683 81.5199 220.712 76.3826 220.712 70.2983C220.712 64.0483 221.718 58.8518 223.73 54.7088C225.743 50.5421 228.418 47.429 231.756 45.3693C235.118 43.286 238.799 42.2443 242.8 42.2443C245.854 42.2443 248.399 42.7652 250.435 43.8068C252.495 44.8248 254.152 46.1032 255.407 47.642C256.685 49.1572 257.656 50.6487 258.319 52.1165H258.78V24.7727H273.873V97.5H258.958V88.7642H258.319C257.608 90.2794 256.602 91.7827 255.3 93.2741C254.022 94.742 252.353 95.9612 250.293 96.9318C248.257 97.9025 245.771 98.3878 242.836 98.3878ZM247.63 86.3494C250.068 86.3494 252.128 85.6866 253.809 84.3608C255.513 83.0114 256.815 81.1293 257.715 78.7145C258.638 76.2997 259.1 73.4706 259.1 70.2273C259.1 66.9839 258.65 64.1667 257.75 61.7756C256.851 59.3845 255.549 57.5379 253.844 56.2358C252.14 54.9337 250.068 54.2827 247.63 54.2827C245.144 54.2827 243.049 54.9574 241.344 56.3068C239.64 57.6562 238.349 59.5265 237.473 61.9176C236.597 64.3087 236.159 67.0786 236.159 70.2273C236.159 73.3996 236.597 76.205 237.473 78.6435C238.373 81.0582 239.663 82.9522 241.344 84.3253C243.049 85.6747 245.144 86.3494 247.63 86.3494ZM311.168 98.5653C305.558 98.5653 300.728 97.429 296.68 95.1562C292.655 92.8598 289.554 89.6165 287.376 85.4261C285.198 81.2121 284.109 76.2287 284.109 70.4759C284.109 64.8651 285.198 59.9408 287.376 55.7031C289.554 51.4654 292.62 48.1629 296.573 45.7955C300.55 43.428 305.214 42.2443 310.565 42.2443C314.163 42.2443 317.513 42.8243 320.614 43.9844C323.739 45.1207 326.462 46.8371 328.782 49.1335C331.126 51.4299 332.949 54.3182 334.251 57.7983C335.553 61.2547 336.204 65.303 336.204 69.9432V74.098H290.146V64.723H321.964C321.964 62.545 321.49 60.6155 320.543 58.9347C319.596 57.2538 318.282 55.9399 316.602 54.9929C314.944 54.0223 313.015 53.5369 310.813 53.5369C308.517 53.5369 306.481 54.0696 304.705 55.1349C302.953 56.1766 301.58 57.5852 300.586 59.3608C299.592 61.1127 299.083 63.0658 299.059 65.2202V74.1335C299.059 76.8324 299.556 79.1643 300.55 81.1293C301.568 83.0942 303.001 84.6094 304.847 85.6747C306.694 86.7401 308.884 87.2727 311.417 87.2727C313.098 87.2727 314.637 87.036 316.033 86.5625C317.43 86.089 318.626 85.3788 319.62 84.4318C320.614 83.4848 321.372 82.3248 321.893 80.9517L335.884 81.875C335.174 85.2367 333.718 88.1723 331.516 90.6818C329.338 93.1676 326.521 95.1089 323.065 96.5057C319.632 97.8788 315.666 98.5653 311.168 98.5653ZM346.076 97.5V42.9545H360.494V52.5781H361.133C362.269 49.3821 364.163 46.8608 366.815 45.0142C369.466 43.1676 372.638 42.2443 376.332 42.2443C380.072 42.2443 383.256 43.1795 385.884 45.0497C388.512 46.8963 390.264 49.4058 391.14 52.5781H391.708C392.821 49.4531 394.833 46.9555 397.745 45.0852C400.681 43.1913 404.149 42.2443 408.15 42.2443C413.24 42.2443 417.371 43.866 420.543 47.1094C423.739 50.3291 425.337 54.8982 425.337 60.8168V97.5H410.245V63.7997C410.245 60.7694 409.44 58.4967 407.83 56.9815C406.22 55.4664 404.208 54.7088 401.793 54.7088C399.047 54.7088 396.905 55.5848 395.366 57.3366C393.827 59.0649 393.058 61.3494 393.058 64.1903V97.5H378.391V63.4801C378.391 60.8049 377.622 58.6742 376.083 57.0881C374.568 55.5019 372.567 54.7088 370.082 54.7088C368.401 54.7088 366.886 55.1349 365.536 55.9872C364.21 56.8158 363.157 57.9877 362.376 59.5028C361.594 60.9943 361.204 62.7462 361.204 64.7585V97.5H346.076ZM444.673 117.955C442.756 117.955 440.956 117.801 439.276 117.493C437.618 117.209 436.245 116.842 435.156 116.392L438.565 105.099C440.341 105.644 441.939 105.94 443.359 105.987C444.804 106.035 446.046 105.703 447.088 104.993C448.153 104.283 449.018 103.075 449.68 101.371L450.568 99.0625L431.001 42.9545H446.911L458.203 83.0114H458.771L470.17 42.9545H486.186L464.986 103.395C463.968 106.33 462.583 108.887 460.831 111.065C459.103 113.267 456.913 114.96 454.261 116.143C451.61 117.351 448.414 117.955 444.673 117.955Z" fill="white"/>
<defs>
<clipPath id="clip0_475_48">
<rect width="100" height="92.126" fill="white" transform="translate(0 5.37402)"/>
</clipPath>
</defs>
</svg>
