<svg width="1440" height="580" viewBox="0 0 1440 580" fill="none" xmlns="http://www.w3.org/2000/svg">
<rect x="200" y="400" width="840" height="180" fill="url(#paint0_linear_40_161)"/>
<rect x="1063" y="200" width="180" height="180" fill="#D9D9D9"/>
<rect x="1060" y="400" width="183" height="180" fill="url(#paint1_linear_40_161)"/>
<rect x="1260" y="400" width="180" height="180" fill="url(#paint2_linear_40_161)"/>
<rect x="1260" y="200" width="180" height="180" fill="#D9D9D9"/>
<rect x="1260" width="180" height="180" fill="#D9D9D9"/>
<rect y="200" width="180" height="180" fill="#D9D9D9"/>
<rect x="200" y="200" width="180" height="180" fill="#D9D9D9"/>
<rect y="200" width="180" height="180" fill="#D9D9D9"/>
<rect x="200.5" y="200.5" width="179" height="179" fill="#D9D9D9" stroke="#151515" stroke-miterlimit="16" stroke-dasharray="5 5"/>
<rect y="400" width="180" height="180" fill="url(#paint3_linear_40_161)"/>
<rect x="400" y="200" width="180" height="180" fill="#D9D9D9"/>
<defs>
<linearGradient id="paint0_linear_40_161" x1="620" y1="400" x2="620" y2="580" gradientUnits="userSpaceOnUse">
<stop stop-color="#D9D9D9"/>
<stop offset="1" stop-color="#FAFAFA" stop-opacity="0"/>
</linearGradient>
<linearGradient id="paint1_linear_40_161" x1="1151.5" y1="400" x2="1151.5" y2="580" gradientUnits="userSpaceOnUse">
<stop stop-color="#D9D9D9"/>
<stop offset="1" stop-color="white" stop-opacity="0"/>
</linearGradient>
<linearGradient id="paint2_linear_40_161" x1="1350" y1="400" x2="1350" y2="580" gradientUnits="userSpaceOnUse">
<stop stop-color="#D9D9D9"/>
<stop offset="1" stop-color="white" stop-opacity="0"/>
</linearGradient>
<linearGradient id="paint3_linear_40_161" x1="90" y1="400" x2="90" y2="580" gradientUnits="userSpaceOnUse">
<stop stop-color="#D9D9D9"/>
<stop offset="1" stop-color="white" stop-opacity="0"/>
</linearGradient>
</defs>
</svg>
